<svg width="16" height="16" viewBox="0 0 16 16" fill="none" xmlns="http://www.w3.org/2000/svg">
<path fill-rule="evenodd" clip-rule="evenodd" d="M11.7701 15.9977C10.6161 15.9553 7.34581 15.5034 3.92082 12.0799C0.496633 8.65561 0.0454705 5.38676 0.00219731 4.23224C-0.0619111 2.47283 1.28597 0.76389 2.843 0.0964986C3.0305 0.0155519 3.23582 -0.015267 3.43883 0.00706618C3.64184 0.0293993 3.83555 0.104117 4.00096 0.223888C5.28312 1.15808 6.16782 2.57138 6.9275 3.68263C7.09465 3.92677 7.16612 4.22387 7.12829 4.5173C7.09046 4.81074 6.94597 5.08 6.72236 5.27379L5.15891 6.43472C5.08338 6.48925 5.03021 6.56934 5.00928 6.66011C4.98835 6.75088 5.00109 6.84616 5.04512 6.92825C5.39932 7.5716 6.02918 8.52983 6.7504 9.2509C7.47242 9.97197 8.47572 10.6434 9.16408 11.0376C9.25039 11.086 9.35198 11.0995 9.44797 11.0754C9.54395 11.0513 9.62704 10.9913 9.68016 10.9078L10.6979 9.35906C10.885 9.11057 11.161 8.9441 11.4681 8.89452C11.7752 8.84493 12.0896 8.91608 12.3455 9.09307C13.473 9.87343 14.7888 10.7427 15.752 11.9757C15.8815 12.1423 15.9639 12.3406 15.9906 12.5499C16.0172 12.7592 15.9871 12.9718 15.9035 13.1655C15.2327 14.7302 13.5355 16.0626 11.7701 15.9977Z" fill="white"/>
</svg>
